<svg xmlns="http://www.w3.org/2000/svg" width="124" height="96" viewBox="0 0 124 96"><g transform="translate(-1472 -447)"><circle cx="6" cy="6" r="6" transform="translate(1472 447)" fill="#023e8a"/><circle cx="6" cy="6" r="6" transform="translate(1500 447)" fill="#023e8a"/><circle cx="6" cy="6" r="6" transform="translate(1528 447)" fill="#023e8a"/><circle cx="6" cy="6" r="6" transform="translate(1528 447)" fill="#023e8a"/><circle cx="6" cy="6" r="6" transform="translate(1556 447)" fill="#023e8a"/><circle cx="6" cy="6" r="6" transform="translate(1584 447)" fill="#023e8a"/><circle cx="6" cy="6" r="6" transform="translate(1584 475)" fill="#023e8a"/><circle cx="6" cy="6" r="6" transform="translate(1556 475)" fill="#023e8a"/><circle cx="6" cy="6" r="6" transform="translate(1528 475)" fill="#023e8a"/><circle cx="6" cy="6" r="6" transform="translate(1500 475)" fill="#023e8a"/><circle cx="6" cy="6" r="6" transform="translate(1472 475)" fill="#023e8a"/><circle cx="6" cy="6" r="6" transform="translate(1472 503)" fill="#023e8a"/><circle cx="6" cy="6" r="6" transform="translate(1500 503)" fill="#023e8a"/><circle cx="6" cy="6" r="6" transform="translate(1528 503)" fill="#023e8a"/><circle cx="6" cy="6" r="6" transform="translate(1556 503)" fill="#023e8a"/><circle cx="6" cy="6" r="6" transform="translate(1584 503)" fill="#023e8a"/><circle cx="6" cy="6" r="6" transform="translate(1584 531)" fill="#023e8a"/><circle cx="6" cy="6" r="6" transform="translate(1556 531)" fill="#023e8a"/><circle cx="6" cy="6" r="6" transform="translate(1528 531)" fill="#023e8a"/><circle cx="6" cy="6" r="6" transform="translate(1500 531)" fill="#023e8a"/><circle cx="6" cy="6" r="6" transform="translate(1472 531)" fill="#023e8a"/></g></svg>