<svg xmlns="http://www.w3.org/2000/svg" width="554.854" height="439.182" viewBox="0 0 554.854 439.182"><g transform="translate(609.553 -455.441)"><path d="M-266.8,591.051c-5.538,6.21-12.305,6.5-19.666,4.143-4.929-1.577-9.531-3.94-14.33-5.823-9.966-3.91-19.148-2.453-27.637,3.937a11.174,11.174,0,0,1-.983.737,1.541,1.541,0,0,1-2.192-.362,1.505,1.505,0,0,1,.154-2.206,28.529,28.529,0,0,1,3.3-2.511c9.4-5.934,19.231-6.656,29.471-2.4,4.576,1.9,9.006,4.165,13.781,5.568,3.745,1.1,7.5,1.69,11.238-.043a11.559,11.559,0,0,0,3.177-2.125c1.665-1.59,1.945-1.622,3.689-.461Z" transform="translate(212.101 146.684)" fill="#003474"/><path d="M-266.805,583.514c-2.117,1.9-4.22,3.8-7.05,4.64-4.1,1.219-8.111.688-12.1-.5a109.557,109.557,0,0,1-13.074-5.281c-10.748-4.766-20.731-3.586-29.975,3.7-.9.7-1.817.863-2.569-.051-.816-.994-.407-1.9.531-2.633,9.484-7.406,19.85-9.263,31.189-4.947,4.871,1.853,9.49,4.338,14.486,5.887a18.361,18.361,0,0,0,9.533.814,11.305,11.305,0,0,0,5.454-2.986c1.562-1.491,2.02-1.515,3.573-.184Z" transform="translate(212.106 137.884)" fill="#003474"/><path d="M-472.1,673.533q-4.335-7.182-8.665-14.366c-1.422-2.365-2.821-4.745-4.246-7.11-.619-1.028-.9-2.067.328-2.781,1.208-.7,1.984.023,2.6,1.063q5.942,10.032,11.9,20.051c.917,1.549.788,2.076-.688,3.143Z" transform="translate(36.734 221.09)" fill="#003474"/><path d="M-510.271,667.9q-3.474-5.527-6.954-11.05c-.632-1-.748-2,.366-2.652,1.086-.638,1.935-.083,2.551.917,1.956,3.175,3.875,6.378,5.915,9.5a2.264,2.264,0,0,1-.336,3.286Z" transform="translate(0 226.722)" fill="#003474"/><path d="M-199.932,776.118q2.307,14.573,4.617,29.143,2.057,12.9,4.147,25.8c.161.981-.03,1.6-1.148,1.609-1.429.017-1.525.662-1.11,1.9.949,2.813,1.855,5.638,3.061,8.351.358.8.18,1.114-.566,1.457-3.569,1.645-7.127,3.316-10.658,5.041-.683.334-2.012.448-1.491,1.695.533,1.281,1.5.57,2.32.178,3.5-1.669,7.024-3.3,10.508-5.009.865-.424,1.307-.4,1.718.563a13.564,13.564,0,0,0,1.722,3.07c.816,1.039.383,1.506-.482,2.112-2.937,2.059-5.836,4.171-8.749,6.264q-.125.09-.257.167a1.187,1.187,0,0,0-.542,1.806c.516.784,1.153.338,1.714-.064,2.952-2.125,5.947-4.195,8.832-6.406,1.105-.848,1.684-.72,2.517.323a15.023,15.023,0,0,0,6.952,4.859,35.636,35.636,0,0,1,12.466,7.1c.452.409.932.788,1.371,1.157-.411.651-.863.433-1.225.433q-44.383.016-88.765.043c-1.243,0-1.388-.422-1.38-1.489.047-6.369-.009-12.74.051-19.109.013-1.182-.326-1.348-1.378-1.108-2.946.675-5.921,1.21-8.856,1.917a1.355,1.355,0,0,1-1.652-.613,51.49,51.49,0,0,1-7.751-15.771c-3.241-9.974-4.994-20.264-6.294-30.647a406.351,406.351,0,0,1-2.826-44.81c-.011-.833-.178-1.279-1.1-1.155a7.005,7.005,0,0,1-.925.006H-481.264c-2.009,0-2.009,0-2.009,2.07q0,58.329,0,116.657c0,3.261-1.4,4.773-4.3,4.66a3.745,3.745,0,0,1-3.732-3.4,13.185,13.185,0,0,1-.028-1.54q0-58.326.036-116.657c0-1.484-.338-1.887-1.827-1.825a26.334,26.334,0,0,1-7.654-.422,13.032,13.032,0,0,1-9.968-12.661q-.038-9.091,0-18.181A13.035,13.035,0,0,1-497.7,710.631c1.746,0,3.494-.036,5.238.017.816.026,1.155-.135,1.148-1.065q-.068-8.554,0-17.106c.006-.85-.291-.988-1.058-1.007-2.611-.062-5.232.264-7.834-.24a12.992,12.992,0,0,1-10.529-12.513q-.061-33.75,0-67.5a12.957,12.957,0,0,1,12.924-12.783q29.589-.013,59.178.021a1.955,1.955,0,0,0,2.224-1.446c5.231-13.076,11.969-25.259,21.6-35.675,8.263-8.933,18.552-14.15,30.386-16.515,1.2-.24,2.419-.439,3.633-.621,1.155-.176,2.316-.3,3.466-.45.124-.36-.171-.48-.349-.623A31.205,31.205,0,0,1-387.8,528.2a1.763,1.763,0,0,0-1.515-1.384c-8.01-1.812-14.441-10.124-13.912-17.849a11.275,11.275,0,0,1,10.681-10.386,11.714,11.714,0,0,1,3.985.167c1.219.39,1.467-.163,1.669-1.153a26.366,26.366,0,0,1,4.428-10.371c2.027-2.791,4.471-5.069,7.941-5.986a4.6,4.6,0,0,1,2.275-.208c1.446.383,2.249-.373,3.145-1.287a45.6,45.6,0,0,1,12.457-9.424,15.088,15.088,0,0,1,5.866-1.665,8.193,8.193,0,0,1,8.012,4.417c.559.966,1.03,1.088,2.1.7a29.346,29.346,0,0,1,14.345-1.8c6.178.923,10.2,4.46,12.277,10.264a26.549,26.549,0,0,1,1.461,12.541c-.763,5.84-4.989,10.146-11.457,11.444a40.519,40.519,0,0,1-4.717.606c-.671.056-.9.2-.782.889,2.134,12.2-2.442,22.28-9.925,31.444a36.635,36.635,0,0,1-7.791,7.189c1.581.69,3.018,1.266,4.409,1.937,6.825,3.286,12.1,8.321,16.517,14.409a233.529,233.529,0,0,1,20.836,34.741,1.543,1.543,0,0,0,1.632,1.009q31.594-.039,63.184-.015a3.427,3.427,0,0,0,1.48-.293q15.007-6.838,30.017-13.663c.086-.039.146-.135.216-.206,1.2-.18,2.406-1.251,3.605,0a2.727,2.727,0,0,1,.111,1.926c-.975,4.025-1.881,8.066-2.841,12.23h8.038c5.443,0,10.889-.009,16.335,0a12.91,12.91,0,0,1,12.9,12.909q.022,22.886-.009,45.769a4.79,4.79,0,0,0,.621,2.472q24.383,43.1,47.173,87.059c.094.18.191.362.283.546,1.332,2.637,1.332,2.637-1.285,4.222,2.014,2.327,4.276,4.366,6.478,6.457-2.847,3.447-5.66,6.836-8.449,10.246-.418.51-1.217,1.08-.39,1.812.855.759,1.493.141,2.048-.531,2.577-3.125,5.182-6.232,7.706-9.4.561-.7.868-.718,1.54-.189a46.788,46.788,0,0,0,4.019,2.836c.643.4.645.679.3,1.279-1.63,2.834-3.216,5.7-4.812,8.55-.326.581-.69,1.176-.246,1.851.5.765,1.431.578,2.024-.463,1.667-2.933,3.3-5.887,4.953-8.824.225-.4.3-1.052,1.075-.63,3.719,2.02,7.714,1.575,11.716,1.371a30.532,30.532,0,0,1,13.2,2.031c-2.069.979-3.967,1.883-5.872,2.774q-37.786,17.716-75.555,35.461c-1.255.591-1.647.369-2.187-.8-3.948-8.543-7.986-17.044-11.932-25.587-.471-1.017-.859-1.054-1.765-.589-3.961,2.025-7.976,3.942-11.924,5.992-1.06.548-1.581.555-2.247-.572-1.714-2.9-3.593-5.7-5.407-8.537-.034-.158.028-.461-.233-.358C-200.144,775.657-200.095,775.951-199.932,776.118Zm-106.59-113.051q-2.282.652-4.565,1.3c-.266.075-.733-.034-.636.431.169.816-.471.908-.932,1.159A220.126,220.126,0,0,1-344.445,680.3c-23.323,8.28-47.248,12.044-71.986,9.342a41.129,41.129,0,0,1-16.947-5.429c-.264-.158-.491-.6-.97-.257.21,5.759.51,11.543,1.264,17.29.908,6.911,2.262,13.719,5.236,20.1,3.282,7.044,8.31,12.215,15.827,14.724,4.689,1.566,9.559,1.7,14.419,1.834,9.334.253,18.668.555,28,.6,11.913.056,23.828.017,35.741-.051,17.607-.1,35.208-.452,52.811-.767,1.375-.026,1.47.54,1.414,1.6-.356,6.769-.169,13.537-.041,20.308.227,12.11.9,24.184,2.194,36.226a192.894,192.894,0,0,0,4.97,28.726c1.735,6.581,3.873,13.008,7.6,18.794a1.519,1.519,0,0,0,1.941.831c9.891-2.14,19.807-4.169,29.709-6.26,12.453-2.631,24.9-5.3,37.357-7.9.951-.2,1.14-.5.988-1.388-.752-4.426-1.455-8.862-2.172-13.3a7.152,7.152,0,0,1-1.532.688c-4.019.758-8.051,1.457-12.074,2.2q-17.285,3.168-34.565,6.354-11.093,2.041-22.185,4.075a2,2,0,0,1-1.9-.253,1.608,1.608,0,0,1-.619-1.632c.259-1.041,1.144-1.258,2-1.416q11.841-2.195,23.691-4.349c12.68-2.316,25.356-4.651,38.044-6.922,2.866-.514,5.683-1.4,8.751-1.309q-4.267-26.594-8.53-53.141a1.645,1.645,0,0,1,.788.763c4.049,6.579,8.121,13.143,12.121,19.75.591.975.985,1.228,2.1.673q23.509-11.719,47.065-23.336,8.516-4.216,17.018-8.46c.362-.182,1.281-.12.793-1.056-2.284-4.376-4.55-8.762-6.866-13.226a2.906,2.906,0,0,1-1.712,1.836q-29.171,16.8-59.339,31.727c-1.924.949-2.781.923-3.342-.131-.6-1.133-.139-1.849,1.9-2.853q29.762-14.695,58.518-31.281a4.354,4.354,0,0,1,3.031-.911c-.152-.358-.234-.6-.351-.823-12.989-24.638-26.286-49.107-40.1-73.293-8.258-14.46-20.463-23.7-36.93-27.04-1.4-.285-3.121-1.135-4.141-.621-1.176.591-.8,2.674-1.294,4.049-.283.782-.152,1.671-.977,2.318q-13.242,10.389-26.425,20.851l-11.138,8.809c.551.152.934.287,1.328.366,5.216,1.048,10.433,2.108,15.658,3.119,1.193.231,2.144.632,1.887,2.046s-1.253,1.51-2.472,1.2c-1.1-.283-2.232-.418-3.466-.641.143.632.246,1.075.345,1.521a223.792,223.792,0,0,0,14.552,44.281,270.118,270.118,0,0,0,19.383,34.638c.638.988,1.1,1.954.039,2.855-.936.8-1.9.4-2.841-1.062-1.545-2.414-3.07-4.837-4.6-7.262a222.088,222.088,0,0,1-29.465-71.579c-.621-2.858-1.335-4.726-4.7-4.987-4.008-.311-7.858-1.793-11.962-1.776-13.766.058-27.532.019-41.3.026-1.8,0-3.385-.392-4.162-2.243a3.867,3.867,0,0,1,.874-4.509l.384-.407C-306.1,662.689-306.31,662.869-306.522,663.066Zm-84.512,88.518h62.413q22.038,0,44.075.028c1.2,0,1.585-.278,1.536-1.517-.1-2.564-.071-5.137-.011-7.7.024-.968-.184-1.3-1.249-1.283-5.439.073-10.876.19-16.315.281-13.4.225-26.8.328-40.2.405-21.77.124-43.531-.454-65.3-.711-33.128-.39-66.265-.1-99.4-.1-2.1,0-2.23.163-1.851,2.277a9.966,9.966,0,0,0,10.266,8.325Q-444.047,751.588-391.035,751.584Zm58.717-238.2a37.66,37.66,0,0,0-.5-5.349c-.133-1.063-.608-1.373-1.562-1.412a24.466,24.466,0,0,1-6.722-1.437c-3.143-1.041-6.288-2.072-9.456-3.031A34.34,34.34,0,0,0-362.5,500.4a8.9,8.9,0,0,0-8.678,6.924c-.332,1.178-.583,2.384-.97,3.543a2.57,2.57,0,0,1-2.489,1.924c-2.363.107-3.605-1.058-3.668-3.466-.015-.583.321-1.27-.257-1.748-4.227-3.475-8.719-6.348-14.546-5.583a7.968,7.968,0,0,0-6.881,7.995c.233,6.8,6.371,13.278,13.186,13.841,1,.083,1.348.45,1.6,1.418a28.869,28.869,0,0,0,16.133,19.4c7.513,3.631,14.638,3.01,21.333-2.063a38.6,38.6,0,0,0,7.7-8.121C-335.426,528.185-332.3,521.36-332.317,513.382Zm-136.4,174.783h21.868c2.721,0,5.441.009,8.162-.011.441,0,1.215.257,1.088-.608-.456-3.132.943-6.75-2.374-9.156a4.386,4.386,0,0,1-.838-1.092c-3.25-4.623-4.741-9.917-5.741-15.373-.189-1.028-.514-1.285-1.53-1.283q-29.033.048-58.062,0c-.981,0-1.292.216-1.281,1.249.058,5.236.21,10.48-.021,15.7A10.172,10.172,0,0,0-496.9,688.214C-487.507,688.024-478.111,688.165-468.715,688.165Zm-7.7-61.063q14.868,0,29.741,0c.72,0,1.35.12,1.553-.947a150.249,150.249,0,0,1,6.478-23.282c.3-.833.426-1.238-.767-1.236-19.16.034-38.319-.028-57.479.051-6.66.028-10.5,4.126-10.5,10.761,0,4.417.045,8.837-.028,13.252-.019,1.144.255,1.435,1.416,1.429C-496.145,627.078-486.282,627.1-476.419,627.1Zm-.206,3.357c-9.7,0-19.409.024-29.111-.03-1.277-.006-1.716.2-1.7,1.624q.129,11.858.006,23.719c-.011,1.3.332,1.57,1.592,1.566q28.265-.067,56.532-.03c2.138,0,2.151,0,1.962-2.121a94.491,94.491,0,0,1,1.18-23.126c.2-1.273.021-1.643-1.347-1.635C-457.215,630.487-466.92,630.459-476.624,630.459Zm189.22-8.151c-7.83.1-15.289.765-22.762,1.2-2.406.142-3.575,1.322-3.961,3.725a68.023,68.023,0,0,0-.677,13.64,155.267,155.267,0,0,0,2.153,19.385c.146.872.416.947,1.174.771,3.837-.883,7.367-2.2,9.345-5.985a7.486,7.486,0,0,1,.99-1.365c2.371-2.766,5-3.173,7.986-1.123a42.525,42.525,0,0,1,4.077,3.265,7.139,7.139,0,0,0,4.572,1.892,15.931,15.931,0,0,0,6.528-1.407c.628-.246.589-.75.448-1.281a37.335,37.335,0,0,0-3.036-8,34.306,34.306,0,0,0-8.608-10.512c-.563-.461-1.058-.979-.478-1.662.516-.613,1.183-.465,1.767.028.2.165.407.313.6.48a36.845,36.845,0,0,1,11.135,16.789c.4,1.215-.176,3.154,1.626,3.546a12.072,12.072,0,0,0,4.289-.015c3.008-.458,4.2-2.378,3.6-5.39a41.767,41.767,0,0,0-8.117-17.5c-.5-.649-1.043-1.266-1.54-1.919a.925.925,0,0,1,.2-1.36.855.855,0,0,1,1.345.071c.383.413.756.838,1.11,1.279a44.519,44.519,0,0,1,9.259,20.12c.1.548-.1,1.348.641,1.615,1.135.413,2.316,1.11,3.53.5,1.17-.587.956-1.817.93-2.881a10.441,10.441,0,0,0-.2-1.825,51.21,51.21,0,0,0-6.275-15.876,19.07,19.07,0,0,0-8.335-7.926C-278.427,622.556-283.082,622.426-287.4,622.308Zm72.593,4.792c13.359,0,26.6,0,39.842.015.731,0,.823-.306.818-.915-.021-5.236.064-10.474-.051-15.707-.092-4.218-4.173-8.436-8.366-8.648-8.462-.431-16.932-.086-25.4-.191-.673-.006-.968.193-1.12.913-.493,2.346-1.1,4.67-1.647,7.007C-212.091,615.38-213.437,621.187-214.812,627.1ZM-435,710.631a119.177,119.177,0,0,1-2.361-18.209c-.069-1.088-.628-.93-1.283-.93q-21.649,0-43.3-.023c-1.084,0-1.367.293-1.356,1.364.056,5.446.069,10.889-.006,16.333-.019,1.255.373,1.493,1.54,1.491q22.648-.058,45.3-.026Zm17.738,27.084a4.191,4.191,0,0,0-.6-.533,27.32,27.32,0,0,1-9.777-8.708,1.476,1.476,0,0,0-1.433-.619q-38.6.006-77.2-.021c-1.018,0-1.17.339-1.148,1.225.058,2.309.107,4.627-.013,6.932-.071,1.388.311,1.761,1.735,1.759q43.374-.071,86.751-.034Zm-12.83-13.213a45.267,45.267,0,0,1-3.785-9.666c-.259-.962-.827-.846-1.476-.846q-31.337,0-62.672.006a9.776,9.776,0,0,0-9.385,8.858c-.1,1.3.2,1.688,1.611,1.686q36.957-.08,73.914-.039ZM-303.358,601.72c1.058,2.641,2.1,5.079,3.01,7.564,1.078,2.935,1.033,2.911,4.051,3.042,8.862.388,17.708,1,26.5,2.189,6.412.865,12.845,1.761,19,3.858,1.555.529,1.729.028,2.02-1.262,1.165-5.137,1.215-10.551,3.766-15.392Zm-25.486,21.969c-.056.463-.062.776-.133,1.073a59.7,59.7,0,0,0,.694,30.516,56.494,56.494,0,0,0,3.6,9.439c.473.966,1.125,1.444,2.207,1,1.108-.458,1.12-1.343.831-2.305a7.039,7.039,0,0,0-.409-.825,56.709,56.709,0,0,1-3.518-37.918c.227-.908.561-1.247,1.53-1.255,2.614-.023,5.227-.169,7.841-.289,1.422-.064,2.179-1.043,1.72-2.226-.42-1.082-1.375-1.093-2.324-1.048-8.295.4-16.588.8-24.876,1.337-13.507.872-26.978,2.108-40.427,3.6-.9.1-1.022-.144-1.078-.913q-1-13.818-1.041-27.667c-.013-4.927.094-9.854.173-14.782.017-1.114-.073-2.146-1.463-2.241-1.5-.1-1.744,1-1.789,2.14-.088,2.256-.152,4.512-.178,6.77-.124,11.341.066,22.674.9,33.991.229,3.121.124,3.134-2.939,3.511-1.2.148-2.147.566-1.984,1.992s1.247,1.455,2.318,1.339c2.954-.321,5.9-.711,8.858-1.016,6.832-.7,13.661-1.416,20.5-2.029,6.127-.549,12.262-.994,18.4-1.433C-337.3,624.152-333.157,623.946-328.845,623.689Zm154.684,29.37v-1.506c0-6.575-.036-13.149.032-19.722.013-1.2-.349-1.405-1.455-1.4-8.629.047-17.256.026-25.885.026H-202.6C-190.776,634.844-181.474,642.331-174.161,653.06ZM-254,626.886c.317-1.517.527-2.815.872-4.077.332-1.217.069-1.9-1.277-2.067-2.134-.263-4.128-1.56-6.412-.739a35.281,35.281,0,0,0-6.992,3.387c-.73.461-.816.707-.124,1.29a27.634,27.634,0,0,1,6.474,8.661,53.186,53.186,0,0,1,3.119,7.138,1.24,1.24,0,0,0,1.2.973c.726-.015.538-.729.626-1.172.358-1.8.546-3.646,1.039-5.4.881-3.147,1.078-6.088-1.493-8.61-.441-.433-.645-1.058-.06-1.463a1.186,1.186,0,0,1,1.752.3C-254.9,625.622-254.525,626.151-254,626.886Zm27.852-2.446a3.106,3.106,0,0,0,.521-.345c1.847-1.855,3.676-3.732,5.534-5.576.54-.536.1-.793-.216-1.108-1.705-1.71-3.43-3.4-5.109-5.133-.48-.495-.754-.623-1.307-.039-1.658,1.752-3.376,3.451-5.116,5.126-.546.527-.673.853-.049,1.444,1.712,1.628,3.355,3.329,5.028,5C-226.652,624.021-226.412,624.21-226.151,624.439Zm-95.395-22.931a6.435,6.435,0,0,0-.21-.728c-2.157-6.041-4.34-12.072-6.465-18.124-.422-1.2-1.048-1.934-2.348-1.474-1.275.45-1.185,1.48-.8,2.534q1.639,4.521,3.273,9.047,1.732,4.814,3.445,9.636a1.574,1.574,0,0,0,1.874,1.191C-321.947,603.441-321.411,602.912-321.546,601.508Zm37.22,65.519c1.69,0,3.38.015,5.071,0,1.071-.013,1.8-.514,1.785-1.652-.013-1.12-.69-1.6-1.8-1.6-3.327.017-6.656.03-9.983-.009-1.122-.013-1.823.452-1.866,1.54-.047,1.2.735,1.716,1.879,1.72C-287.6,667.032-285.963,667.027-284.326,667.027Zm-11.324-11.98c-1.729-.906-3.518.523-4.5,3.563Z" transform="translate(7.913 15.082)" fill="#003474"/><path d="M-396.852,511.954q2.291-8.811,4.587-17.622a30.738,30.738,0,0,1,1.457-4.546q1.742,7.773,3.481,15.544c1.275,5.731,2.573,11.457,3.775,17.2.272,1.3.925,1.32,1.952,1.129,6.123-1.14,12.267-2.179,18.368-3.419,1.536-.313,1.193.5,1.2,1.262q.007,16.864.006,33.726c0,1.641.051,3.28.079,4.919v12.892l-.283.141q-4.412-6.52-8.82-13.04c-1.707-2.545-3.55-5.013-5.071-7.667-.893-1.557-1.982-1.75-3.52-1.557-3.543.443-7.106.756-10.649,1.208a54.639,54.639,0,0,0-6.645.848c-3.006.311-6.013.6-9.017.941-1.168.133-1.581.036-1.208-1.395,3.473-13.355,6.851-26.735,10.255-40.107A4.069,4.069,0,0,0-396.852,511.954Zm31.547,50.7a5.659,5.659,0,0,0,.129-.688c0-12.275-.015-24.55.032-36.823.006-1.272-.542-1.148-1.4-.988-6.033,1.118-12.076,2.187-18.1,3.351-.893.174-1.131-.053-1.3-.846-.531-2.549-1.118-5.09-1.686-7.633-1.144-5.129-2.29-10.257-3.483-15.6-.131.351-.191.476-.223.6q-5.691,22.259-11.375,44.516c-.433,1.7-.416,1.69,1.315,1.463.761-.1,1.532-.124,2.3-.206,7.391-.782,14.784-1.549,22.168-2.378a1.831,1.831,0,0,1,1.986.973c2.089,3.16,4.233,6.285,6.356,9.422C-367.544,559.362-366.494,560.9-365.305,562.653Z" transform="translate(126.108 39.23)" fill="#060f36"/><path d="M-346.138,654.327c-.454.178-.516-.2-.641-.458-.771-1.615-1.517-3.245-2.309-4.85-.476-.958.356-1,.836-1.23q8.516-4.02,17.048-8,32.571-15.27,65.133-30.562a1.878,1.878,0,0,1,2.226.2,21.14,21.14,0,0,1,3.286,3c.831.973.84,1.448-.437,2.035-7.016,3.224-13.993,6.534-20.983,9.812q-31.588,14.814-63.18,29.623C-345.483,654.042-345.813,654.182-346.138,654.327Z" transform="translate(192.436 175.349)" fill="#003474"/><path d="M-343.188,662.707h-45.744c-2.127,0-2.127,0-2.127-2.206,0-1.232.041-2.466-.015-3.7-.034-.758.253-1.013.973-.93a9.538,9.538,0,0,0,1.078.006q44.817,0,89.637-.036a2.276,2.276,0,0,1,2.378,1.382,21.961,21.961,0,0,1,1.6,4.13c.326,1.189-.032,1.371-1.118,1.367-8.111-.034-16.221-.017-24.334-.017Z" transform="translate(144.637 228.913)" fill="#003474"/><path d="M-327.888,494.546c-8.329-.39-13.383-5.75-14.934-11.5a17.436,17.436,0,0,1,.42-9.642,15.418,15.418,0,0,1,11.108-9.445,15.547,15.547,0,0,1,18.713,17.459C-313.92,490.128-318.376,493.95-327.888,494.546Zm.219-3.4c7.618-.03,11.915-4.434,11.862-12.157a12.14,12.14,0,0,0-12.159-12.076,12.279,12.279,0,0,0-12.181,12.123A12.271,12.271,0,0,0-327.67,491.144Z" transform="translate(199.184 9.286)" fill="#003474"/><path d="M-328.524,563.887c.407-.039.527.281.7.521,2.933,4.135,5.851,8.278,8.8,12.4.409.572.276.861-.242,1.225q-6.16,4.322-12.288,8.691c-.6.433-.917.384-1.337-.214q-4.316-6.167-8.689-12.29c-.375-.525-.424-.833.143-1.232q6.282-4.415,12.543-8.863C-328.771,564.037-328.638,563.96-328.524,563.887Z" transform="translate(200.85 123.869)" fill="#003474"/><path d="M-488.351,500.356c7.73.057,13.952,2.317,19.984,5.3,4.437,2.192,8.8,4.541,13.551,6.036,9.876,3.111,18.818.322,25.018-7.966,1.219-1.627,2.535-2.785,4.469-1.409s1.244,3.057.118,4.688c-6.947,10.037-19.565,13.919-31.933,9.847-5.546-1.827-10.58-4.756-15.847-7.176-5.753-2.642-11.653-4.437-18.1-3.361-4.816.8-8.667,3.064-11.134,7.373-1.008,1.763-2.278,3-4.3,1.809s-1.563-2.993-.558-4.7C-502.664,503.327-495.742,500.556-488.351,500.356Z" transform="matrix(0.891, 0.454, -0.454, 0.891, 87.08, 273.977)" fill="#003474"/><path d="M-447.541,523.833c-5.328.365-11.714-2.149-17.978-5.217-5.2-2.546-10.276-5.406-16.018-6.672-5.249-1.155-10.362-1.019-15.2,1.577a13.258,13.258,0,0,0-5.531,5.571c-.987,1.863-2.431,2.814-4.366,1.616-1.874-1.158-1.434-2.91-.493-4.519,4.148-7.087,10.609-10.144,18.554-10.487,7.687-.333,14.567,2.4,21.278,5.749,4.656,2.324,9.225,4.849,14.363,6.029,9.261,2.124,16.859-.5,22.769-7.952.318-.4.608-.83.926-1.234a2.618,2.618,0,0,1,3.822-.758,2.64,2.64,0,0,1,.7,4.03,27.014,27.014,0,0,1-8.61,8.328C-437.329,522.292-440.447,523.229-447.541,523.833Z" transform="matrix(0.891, 0.454, -0.454, 0.891, 80.856, 286.179)" fill="#003474"/><g transform="translate(-270.884 455.441)"><path d="M-329.083,584.841c-1.2-1.253-2.4-.182-3.605,0q-12.243-.032-24.484-.062c-3.438,0-6.877.053-10.313.081-.028-1.639-.079-3.278-.079-4.919q-.01-16.861-.006-33.726c0-.765.341-1.575-1.2-1.262-6.1,1.24-12.245,2.279-18.368,3.419-1.026.191-1.679.167-1.952-1.129-1.2-5.745-2.5-11.472-3.775-17.2q-1.729-7.773-3.481-15.544a30.738,30.738,0,0,0-1.457,4.546q-2.3,8.811-4.587,17.622-.013-24.724-.026-49.448c0-5.75.062-11.5-.043-17.252-.028-1.551.461-1.812,1.887-1.81q61.7.058,123.4.03c.771,0,1.54-.009,2.311-.013a17.436,17.436,0,0,0-.42,9.642c1.551,5.748,6.6,11.108,14.934,11.5q0,27.85,0,55.7a13.422,13.422,0,0,0-1.817.148,3.319,3.319,0,0,0-2.789,3.755,3.333,3.333,0,0,0,3.462,2.937c.4.009.808.051,1.21.079-.03.615-.084,1.228-.084,1.842-.006,9.8-.028,19.606.026,29.411.006,1.283-.338,1.615-1.617,1.613q-32.645-.061-65.29-.026C-327.856,584.774-328.468,584.819-329.083,584.841Zm8.713-87.464-.281-.169c-4.134,4.278-8.256,8.567-12.408,12.826q-8.705,8.94-17.444,17.845c-1.442,1.478-1.437,1.5.493,2.378,4.43,2.009,8.852,4.038,13.31,5.979a1.631,1.631,0,0,1,1.176,1.967c-.289,2.284-.5,4.578-.745,6.868q-.836,7.757-1.677,15.514c1.562-2.168,2.907-4.439,4.257-6.707,5.636-9.467,11.255-18.944,16.935-28.385.66-1.1.366-1.363-.7-1.718-3.2-1.065-6.354-2.281-9.554-3.348-.979-.326-1.11-.735-.78-1.639.983-2.689,1.892-5.4,2.828-8.113Q-322.664,504.025-320.37,497.377Zm41.92,62.77c-3.338,0-6.677-.011-10.015,0a3.382,3.382,0,0,0-3.6,3.216,3.427,3.427,0,0,0,3.464,3.558q10.093.071,20.187,0a3.458,3.458,0,0,0,3.462-3.58,3.427,3.427,0,0,0-3.638-3.192C-271.876,560.138-275.162,560.147-278.451,560.147Zm-22.245-8.3c2.667,0,5.334-.017,8,.009a3.113,3.113,0,0,0,3.111-2.054c1.022-2.4-.623-4.7-3.488-4.73-4.974-.062-9.949-.021-14.925-.009a4.117,4.117,0,0,0-1.052.171,3.392,3.392,0,0,0-2.652,3.608,3.3,3.3,0,0,0,3.466,3C-305.722,551.863-303.209,551.852-300.7,551.85Zm23.13,0c1.433,0,2.866.03,4.3-.006a3.064,3.064,0,0,0,3.106-2.613c.242-1.956-.521-3.327-2.174-3.9a1.253,1.253,0,0,0-.294-.09,40.8,40.8,0,0,0-9.767.069,3.233,3.233,0,0,0-2.573,3.483,3.368,3.368,0,0,0,3.41,3.057C-280.227,551.865-278.9,551.85-277.566,551.85Zm-26.952,8.3c-1.18,0-2.361-.011-3.541,0a3.367,3.367,0,0,0-3.668,3.3,3.425,3.425,0,0,0,3.252,3.447c2.613.116,5.24.131,7.851-.013a3.246,3.246,0,0,0,3.046-3.717,3.156,3.156,0,0,0-3.4-3.021C-302.155,560.132-303.335,560.147-304.518,560.147ZM-371.6,483.5a4.745,4.745,0,0,0,4.717,4.846,4.874,4.874,0,0,0,4.79-4.831,4.817,4.817,0,0,0-4.707-4.726A4.64,4.64,0,0,0-371.6,483.5Zm-7.652.006a4.539,4.539,0,0,0-4.728-4.717,4.557,4.557,0,0,0-4.6,4.719,4.658,4.658,0,0,0,4.679,4.837A4.585,4.585,0,0,0-379.255,483.5Z" transform="translate(402.524 -440.92)" fill="#00a7cf"/><path d="M-360.476,474.813c-10.941,0-21.879.024-32.817-.013-4.252-.013-7.626-2.417-8.678-6.3-1.187-4.387-.3-8.862,3.245-11.384a8.741,8.741,0,0,1,5.182-1.673q33.124,0,66.249,0a8.623,8.623,0,0,1,8.775,8.766,15.439,15.439,0,0,1-.174,3.835,8.832,8.832,0,0,1-8.968,6.759c-6.778.03-13.558.009-20.336.009Q-354.237,474.815-360.476,474.813Z" transform="translate(402.509 -455.441)" fill="#00a7cf"/><path d="M-402.436,520.411a54.638,54.638,0,0,1,6.645-.848c3.543-.452,7.106-.765,10.649-1.208,1.538-.193,2.626,0,3.52,1.557,1.521,2.654,3.363,5.122,5.071,7.667-7.316-.028-14.63-.039-21.945-.1-1.255-.009-2.924.585-3.655-.291-.615-.737-.193-2.341-.223-3.563C-402.4,522.558-402.416,521.485-402.436,520.411Z" transform="translate(402.487 -383.648)" fill="#00a7cf"/></g><path d="M-333.586,510.951c-.4-.028-.808-.071-1.21-.079a3.333,3.333,0,0,1-3.462-2.937,3.319,3.319,0,0,1,2.789-3.755,13.422,13.422,0,0,1,1.817-.148c5.891.015,11.782.017,17.674.047a3.382,3.382,0,0,1,3.7,3.417c.009,2.106-1.358,3.428-3.629,3.434-5.636.015-11.273,0-16.909,0C-333.074,510.934-333.331,510.945-333.586,510.951Z" transform="translate(204.95 55.503)" fill="#003474"/><path d="M-484.407,502.16l19.594-6.693-2.428,20.516Z" transform="matrix(0.891, 0.454, -0.454, 0.891, 146.796, 290.271)" fill="#003474"/><path d="M-419.7,495.725c3.74.463,7.292.9,10.842,1.345,1.168.146,2.331.323,3.5.461,1.086.131,1.718.688,1.62,1.812a1.556,1.556,0,0,1-1.9,1.525c-4.717-.57-9.43-1.187-14.143-1.806a1.543,1.543,0,0,1-1.485-1.789A1.586,1.586,0,0,1-419.7,495.725Z" transform="translate(110.141 46.014)" fill="#060f36"/><path d="M-423.351,502.334a1.958,1.958,0,0,1,1.335.675q4.807,3.959,9.608,7.928c.9.739,1.369,1.617.553,2.635s-1.778.748-2.676,0q-4.913-4.071-9.831-8.141a1.669,1.669,0,0,1-.677-2.024A1.574,1.574,0,0,1-423.351,502.334Z" transform="translate(105.695 53.553)" fill="#060f36"/><path d="M-330.98,655a4.282,4.282,0,0,1-.234.8c-1.632,3.573-3.284,7.138-4.923,10.709a1.664,1.664,0,0,1-1.937,1.131,1.571,1.571,0,0,1-1.2-2.333c1.679-3.775,3.432-7.517,5.182-11.26a1.548,1.548,0,0,1,1.93-.861C-331.383,653.385-330.957,653.931-330.98,655Z" transform="translate(203.604 225.797)" fill="#003474"/><path d="M-470.237,665.374c-.021,1.219-.461,1.847-1.42,1.975a1.623,1.623,0,0,1-1.913-1.377c-.76-2.916-1.5-5.84-2.237-8.762a7.93,7.93,0,0,1-.287-1.341,1.5,1.5,0,0,1,1.247-1.688,1.451,1.451,0,0,1,1.881.938C-471.98,658.6-471.093,662.12-470.237,665.374Z" transform="translate(47.518 226.942)" fill="#003474"/><path d="M-416.906,495.622c-.383,0-.893,0-1.405,0a1.544,1.544,0,0,1-1.639-1.489,1.482,1.482,0,0,1,1.339-1.757c2.179-.219,4.375-.354,6.564-.375a1.475,1.475,0,0,1,1.474,1.643,1.567,1.567,0,0,1-1.624,1.667C-413.725,495.415-415.25,495.513-416.906,495.622Z" transform="translate(111.639 41.762)" fill="#060f36"/><path d="M-346.937,576.686a3.867,3.867,0,0,0-.874,4.509c.778,1.851,2.359,2.243,4.162,2.243,13.766-.006,27.532.032,41.3-.026,4.1-.017,7.954,1.465,11.962,1.776,3.363.261,4.077,2.129,4.7,4.987a222.088,222.088,0,0,0,29.465,71.579c1.527,2.425,3.053,4.848,4.6,7.262.938,1.467,1.9,1.862,2.841,1.063,1.06-.9.6-1.868-.039-2.856a270.114,270.114,0,0,1-19.383-34.638,223.79,223.79,0,0,1-14.552-44.281c-.1-.446-.2-.889-.345-1.521,1.234.223,2.369.358,3.466.641,1.219.315,2.213.221,2.472-1.2s-.694-1.814-1.887-2.046c-5.225-1.011-10.441-2.072-15.658-3.119-.394-.079-.778-.214-1.328-.366l11.138-8.809q13.2-10.437,26.425-20.851c.825-.647.694-1.536.977-2.318.493-1.375.118-3.458,1.294-4.049,1.02-.514,2.738.336,4.141.621,16.468,3.336,28.672,12.579,36.93,27.04,13.813,24.186,27.11,48.655,40.1,73.293.118.223.2.465.351.823a4.354,4.354,0,0,0-3.031.911q-28.769,16.555-58.518,31.281c-2.037,1-2.5,1.72-1.9,2.853.561,1.054,1.418,1.08,3.342.131q30.187-14.9,59.339-31.727a2.906,2.906,0,0,0,1.712-1.836c2.316,4.464,4.582,8.85,6.866,13.226.488.936-.431.874-.793,1.056q-8.493,4.264-17.018,8.46-23.538,11.655-47.065,23.336c-1.114.555-1.508.3-2.1-.673-4-6.607-8.072-13.171-12.121-19.75a1.645,1.645,0,0,0-.788-.763q4.264,26.558,8.53,53.141c-3.068-.088-5.885.795-8.751,1.309-12.689,2.271-25.364,4.606-38.044,6.922q-11.848,2.166-23.691,4.349c-.855.158-1.739.375-2,1.416a1.608,1.608,0,0,0,.619,1.632,2,2,0,0,0,1.9.253q11.1-2.015,22.185-4.075,17.282-3.181,34.565-6.354c4.023-.739,8.055-1.437,12.074-2.2a7.152,7.152,0,0,0,1.532-.687c.718,4.435,1.42,8.871,2.172,13.3.152.891-.036,1.189-.988,1.388-12.459,2.6-24.9,5.272-37.357,7.9-9.9,2.091-19.818,4.12-29.709,6.26a1.519,1.519,0,0,1-1.941-.831c-3.725-5.786-5.863-12.213-7.6-18.794a192.889,192.889,0,0,1-4.97-28.726c-1.292-12.042-1.967-24.116-2.194-36.226-.128-6.772-.315-13.539.041-20.309.056-1.065-.039-1.63-1.414-1.6-17.6.315-35.2.666-52.811.767-11.913.069-23.828.107-35.742.051-9.336-.043-18.67-.345-28-.6-4.861-.131-9.73-.268-14.42-1.834-7.517-2.508-12.545-7.68-15.827-14.724-2.974-6.378-4.327-13.186-5.236-20.1-.754-5.748-1.054-11.532-1.264-17.29.48-.341.707.1.97.257a41.13,41.13,0,0,0,16.947,5.429c24.739,2.7,48.664-1.063,71.986-9.342A220.114,220.114,0,0,0-353.4,579.3c.461-.251,1.1-.343.932-1.159-.1-.465.371-.356.636-.431q2.285-.649,4.565-1.3Z" transform="translate(48.662 101.74)" fill="#fdfdfe"/><path d="M-392.783,606.428q-53.015,0-106.027,0a9.966,9.966,0,0,1-10.266-8.325c-.379-2.114-.246-2.277,1.851-2.277,33.134,0,66.271-.289,99.4.1,21.765.257,43.526.836,65.3.711,13.4-.077,26.8-.18,40.2-.4,5.439-.09,10.876-.208,16.315-.281,1.065-.013,1.272.315,1.249,1.283-.06,2.566-.09,5.139.011,7.7.049,1.238-.336,1.521-1.536,1.517q-22.037-.061-44.075-.028Z" transform="translate(9.661 160.238)" fill="#fdfdfe"/><path d="M-391.389,496.469c.024,7.978-3.106,14.8-7.716,21.086a38.608,38.608,0,0,1-7.7,8.121c-6.695,5.073-13.82,5.694-21.333,2.063a28.869,28.869,0,0,1-16.133-19.4c-.253-.968-.6-1.335-1.6-1.418-6.815-.563-12.952-7.039-13.186-13.841a7.968,7.968,0,0,1,6.881-7.995c5.827-.765,10.319,2.108,14.546,5.583.578.478.242,1.165.257,1.748.062,2.408,1.3,3.573,3.668,3.466a2.57,2.57,0,0,0,2.489-1.924c.388-1.159.638-2.365.971-3.543a8.9,8.9,0,0,1,8.678-6.924,34.341,34.341,0,0,1,11.939,1.748c3.168.96,6.313,1.99,9.456,3.031a24.47,24.47,0,0,0,6.722,1.437c.953.039,1.429.349,1.562,1.412A37.342,37.342,0,0,1-391.389,496.469Zm-9.747,7.858a1.06,1.06,0,0,0-.988-1.324c-.829-.126-1.185.467-1.258,1.21a46.52,46.52,0,0,1-3.252,12.672c-.276.694-.356,1.358.431,1.688s1.3.006,1.641-.838A50.481,50.481,0,0,0-401.137,504.327Zm-50.337-14.968c-.72-.077-1.42.032-1.547.979-.131,1.007.538,1.11,1.343,1.217a8.727,8.727,0,0,1,7.466,5.8c.186.473.263.99.418,1.476a1.037,1.037,0,0,0,1.363.673c.666-.137.853-.636.773-1.29C-442.178,493.849-447.013,489.451-451.473,489.359Zm38.021,10.793a2.19,2.19,0,0,0-2.252,2.192,2.154,2.154,0,0,0,2.138,2.123,1.962,1.962,0,0,0,2.181-2.005A2.059,2.059,0,0,0-413.452,500.151Z" transform="translate(66.983 31.995)" fill="#fdfdfe"/><path d="M-470.485,585.792c-9.4,0-18.792-.141-28.184.049a10.172,10.172,0,0,1-10.544-10.617c.231-5.225.079-10.469.021-15.7-.011-1.033.3-1.249,1.281-1.249q29.03.045,58.062,0c1.015,0,1.341.255,1.53,1.283,1,5.456,2.491,10.75,5.741,15.373a4.392,4.392,0,0,0,.838,1.093c3.316,2.406,1.917,6.024,2.374,9.156.126.865-.647.6-1.088.608-2.721.019-5.441.011-8.162.011Z" transform="translate(9.683 117.455)" fill="#fdfdfe"/><path d="M-478.2,556.189c-9.863,0-19.726-.024-29.589.03-1.161.007-1.435-.285-1.416-1.429.073-4.415.028-8.835.028-13.252,0-6.634,3.843-10.733,10.5-10.761,19.16-.079,38.319-.017,57.479-.051,1.193,0,1.069.4.767,1.236a150.249,150.249,0,0,0-6.478,23.282c-.2,1.067-.833.947-1.553.947Q-463.334,556.185-478.2,556.189Z" transform="translate(9.698 85.995)" fill="#fdfdfe"/><path d="M-478.4,544.2c9.7,0,19.409.028,29.113-.032,1.369-.009,1.549.362,1.347,1.635a94.491,94.491,0,0,0-1.18,23.126c.189,2.119.176,2.121-1.962,2.121q-28.265,0-56.532.03c-1.26,0-1.6-.263-1.592-1.566q.106-11.861-.006-23.719c-.015-1.429.424-1.63,1.7-1.624C-497.812,544.22-488.107,544.2-478.4,544.2Z" transform="translate(9.692 101.344)" fill="#fdfdfe"/><path d="M-391.855,540.374c4.323.118,8.978.248,13.325,2.281a19.07,19.07,0,0,1,8.336,7.926,51.212,51.212,0,0,1,6.275,15.876,10.436,10.436,0,0,1,.2,1.825c.026,1.065.24,2.294-.93,2.881-1.215.608-2.4-.088-3.53-.5-.741-.268-.54-1.067-.641-1.615a44.52,44.52,0,0,0-9.259-20.12c-.354-.441-.726-.865-1.11-1.279a.855.855,0,0,0-1.345-.071.925.925,0,0,0-.2,1.36c.5.653,1.041,1.27,1.54,1.919a41.767,41.767,0,0,1,8.117,17.5c.6,3.012-.593,4.931-3.6,5.39a12.075,12.075,0,0,1-4.289.015c-1.8-.392-1.23-2.331-1.626-3.546a36.844,36.844,0,0,0-11.135-16.789c-.2-.167-.4-.315-.6-.48-.585-.493-1.251-.641-1.767-.028-.581.683-.086,1.2.478,1.662a34.306,34.306,0,0,1,8.608,10.512,37.337,37.337,0,0,1,3.036,8c.141.531.18,1.035-.448,1.281a15.93,15.93,0,0,1-6.528,1.408,7.14,7.14,0,0,1-4.572-1.892,42.526,42.526,0,0,0-4.077-3.265c-2.991-2.05-5.615-1.643-7.986,1.123a7.484,7.484,0,0,0-.99,1.365c-1.977,3.787-5.508,5.1-9.345,5.985-.758.176-1.028.1-1.174-.771a155.27,155.27,0,0,1-2.153-19.385,68.016,68.016,0,0,1,.677-13.64c.386-2.4,1.555-3.584,3.961-3.725C-407.145,541.139-399.685,540.472-391.855,540.374Z" transform="translate(112.364 97.015)" fill="#fdfdfe"/><path d="M-372.619,556.2c1.375-5.913,2.721-11.72,4.077-17.526.546-2.337,1.155-4.661,1.647-7.007.152-.72.448-.919,1.12-.913,8.466.1,16.937-.24,25.4.191,4.192.212,8.273,4.43,8.366,8.648.116,5.234.03,10.471.051,15.707,0,.608-.088.917-.818.915C-346.019,556.192-359.26,556.2-372.619,556.2Z" transform="translate(165.72 85.985)" fill="#fdfdfe"/><path d="M-449.645,591.821h-1.465q-22.651,0-45.3.026c-1.168,0-1.56-.236-1.54-1.491.075-5.444.062-10.887.006-16.333-.011-1.071.272-1.367,1.356-1.364q21.652.054,43.3.023c.656,0,1.215-.159,1.283.93A119.185,119.185,0,0,0-449.645,591.821Z" transform="translate(22.558 133.892)" fill="#fdfdfe"/><path d="M-419.041,599.515h-1.68q-43.374,0-86.751.034c-1.425,0-1.806-.371-1.735-1.759.12-2.305.071-4.623.013-6.932-.021-.887.131-1.226,1.148-1.226q38.6.048,77.2.022a1.475,1.475,0,0,1,1.433.619,27.323,27.323,0,0,0,9.777,8.708A4.181,4.181,0,0,1-419.041,599.515Z" transform="translate(9.692 153.282)" fill="#fdfdfe"/><path d="M-431.876,593.685h-1.793q-36.957,0-73.914.039c-1.407,0-1.707-.386-1.611-1.686a9.776,9.776,0,0,1,9.385-8.858q31.337-.026,62.672-.006c.649,0,1.217-.116,1.476.846A45.271,45.271,0,0,0-431.876,593.685Z" transform="translate(9.697 145.898)" fill="#fdfdfe"/><path d="M-413.952,530.764h58.347c-2.551,4.842-2.6,10.255-3.766,15.392-.291,1.29-.465,1.791-2.02,1.262-6.155-2.1-12.588-2.993-19-3.858-8.792-1.185-17.637-1.8-26.5-2.189-3.018-.131-2.973-.107-4.051-3.042C-411.855,535.843-412.894,533.405-413.952,530.764Z" transform="translate(118.507 86.038)" fill="#fdfdfe"/><path d="M-392.425,564.753c-4.312.257-8.456.463-12.592.761-6.135.439-12.271.885-18.4,1.433-6.84.613-13.67,1.328-20.5,2.029-2.956.3-5.9.694-8.858,1.015-1.071.116-2.157.086-2.318-1.339s.788-1.844,1.984-1.992c3.063-.377,3.168-.39,2.939-3.511-.831-11.318-1.022-22.65-.9-33.991.026-2.258.09-4.514.178-6.77.045-1.14.294-2.243,1.789-2.14,1.39.094,1.48,1.127,1.463,2.241-.079,4.927-.186,9.854-.174,14.782q.029,13.85,1.041,27.667c.056.769.182,1.011,1.078.913,13.449-1.493,26.92-2.729,40.427-3.6,8.288-.536,16.581-.94,24.876-1.337.949-.045,1.9-.034,2.324,1.048.458,1.182-.3,2.161-1.72,2.226-2.614.12-5.227.266-7.841.289-.968.009-1.3.347-1.53,1.255a56.709,56.709,0,0,0,3.518,37.918,7.039,7.039,0,0,1,.409.825c.289.962.276,1.847-.831,2.305-1.082.448-1.733-.03-2.207-1a56.5,56.5,0,0,1-3.6-9.439,59.7,59.7,0,0,1-.694-30.516C-392.487,565.529-392.48,565.216-392.425,564.753Z" transform="translate(71.493 74.018)" fill="#fdfdfe"/><path d="M-338.477,566.794c-7.314-10.728-16.615-18.216-28.443-22.6h1.135c8.629,0,17.256.021,25.885-.026,1.105-.006,1.467.2,1.455,1.4-.069,6.573-.032,13.147-.032,19.722Z" transform="translate(172.23 101.348)" fill="#fdfdfe"/><path d="M-383.231,546.324c-.523-.735-.893-1.264-1.275-1.787a1.186,1.186,0,0,0-1.752-.3c-.585.4-.381,1.03.06,1.463,2.571,2.521,2.374,5.463,1.493,8.61-.493,1.759-.681,3.605-1.039,5.4-.088.443.1,1.157-.626,1.172a1.241,1.241,0,0,1-1.2-.973,53.19,53.19,0,0,0-3.119-7.138,27.634,27.634,0,0,0-6.474-8.661c-.692-.583-.606-.829.124-1.29a35.28,35.28,0,0,1,6.992-3.387c2.284-.821,4.278.476,6.412.739,1.345.167,1.609.851,1.277,2.067C-382.7,543.51-382.914,544.808-383.231,546.324Z" transform="translate(137.141 95.643)" fill="#fdfdfe"/><path d="M-374.627,548.081c-.261-.229-.5-.418-.716-.632-1.673-1.669-3.316-3.37-5.028-5-.623-.591-.5-.917.049-1.444,1.74-1.675,3.458-3.374,5.116-5.126.553-.585.827-.456,1.307.038,1.679,1.733,3.4,3.423,5.109,5.133.313.315.756.572.216,1.107-1.857,1.845-3.687,3.721-5.533,5.576A3.112,3.112,0,0,1-374.627,548.081Z" transform="translate(156.39 91.44)" fill="#fdfdfe"/><path d="M-417.069,541.577c.135,1.4-.4,1.932-1.234,2.082a1.574,1.574,0,0,1-1.875-1.191q-1.706-4.823-3.445-9.636-1.629-4.528-3.273-9.047c-.381-1.054-.471-2.084.8-2.534,1.3-.461,1.926.274,2.348,1.474,2.125,6.052,4.308,12.082,6.465,18.123A6.454,6.454,0,0,1-417.069,541.577Z" transform="translate(103.437 75.013)" fill="#fdfdfe"/><path d="M-401.445,562.988c-1.637,0-3.276,0-4.914,0-1.144,0-1.926-.523-1.879-1.72.043-1.088.743-1.553,1.866-1.54,3.327.039,6.656.026,9.983.009,1.11-.006,1.787.475,1.8,1.6.013,1.138-.713,1.639-1.785,1.652C-398.064,563-399.755,562.988-401.445,562.988Z" transform="translate(125.032 119.121)" fill="#fdfdfe"/><path d="M-407.956,555.8l-4.5,3.563C-411.474,556.323-409.685,554.894-407.956,555.8Z" transform="translate(120.219 114.329)" fill="#fdfdfe"/><path d="M-415.429,559.533c.212-.2.426-.377.718-.128l-.384.407Z" transform="translate(116.82 118.615)" fill="#fdfdfe"/><path d="M-365.593,612.463c-.163-.167-.212-.461-.051-.525.261-.1.2.2.233.358C-365.469,612.354-365.531,612.409-365.593,612.463Z" transform="translate(173.574 178.736)" fill="#fdfdfe"/><path d="M-347.524,481.885q-2.294,6.648-4.591,13.3c-.936,2.708-1.844,5.424-2.828,8.113-.33.9-.2,1.313.78,1.639,3.2,1.067,6.352,2.284,9.554,3.348,1.065.356,1.358.619.7,1.718-5.679,9.441-11.3,18.918-16.935,28.385-1.35,2.269-2.7,4.539-4.257,6.707q.839-7.757,1.677-15.514c.246-2.29.456-4.584.745-6.868a1.631,1.631,0,0,0-1.176-1.967c-4.458-1.941-8.88-3.97-13.31-5.979-1.93-.876-1.934-.9-.493-2.378q8.718-8.923,17.444-17.845c4.152-4.259,8.273-8.548,12.408-12.826Zm-12.744,48.846a6.046,6.046,0,0,0,.488-.553c3.738-6.277,7.455-12.564,11.225-18.82.538-.893.041-.975-.581-1.2-3.074-1.088-6.127-2.249-9.222-3.276-.953-.315-1.045-.66-.715-1.527.78-2.046,1.51-4.115,2.151-6.206a21.952,21.952,0,0,0,1.375-4.73l-17.914,18.421,11.283,5.049c3.273,1.465,3.222,1.457,2.727,5C-359.8,525.4-359.982,527.924-360.269,530.731Z" transform="translate(158.794 30.012)" fill="#060f36"/><path d="M-337.31,511.1c3.288,0,6.575-.009,9.863,0a3.427,3.427,0,0,1,3.638,3.192,3.458,3.458,0,0,1-3.462,3.58q-10.093.074-20.187,0a3.428,3.428,0,0,1-3.464-3.558,3.382,3.382,0,0,1,3.6-3.216C-343.987,511.088-340.647,511.1-337.31,511.1Z" transform="translate(190.499 63.57)" fill="#060f36"/><path d="M-349.072,510.856c-2.513,0-5.026.011-7.539,0a3.3,3.3,0,0,1-3.466-3,3.392,3.392,0,0,1,2.652-3.608,4.117,4.117,0,0,1,1.052-.171c4.977-.013,9.951-.054,14.925.009,2.864.034,4.509,2.326,3.488,4.73a3.113,3.113,0,0,1-3.111,2.054C-343.737,510.837-346.4,510.854-349.072,510.856Z" transform="translate(180.016 55.517)" fill="#003474"/><path d="M-340.2,510.887c-1.33,0-2.661.015-3.991,0a3.368,3.368,0,0,1-3.411-3.057,3.233,3.233,0,0,1,2.573-3.483,40.8,40.8,0,0,1,9.767-.069,1.252,1.252,0,0,1,.293.09c1.654.574,2.416,1.945,2.174,3.9a3.064,3.064,0,0,1-3.106,2.614C-337.335,510.917-338.768,510.887-340.2,510.887Z" transform="translate(194.276 55.485)" fill="#003474"/><path d="M-352.893,511.1c1.182,0,2.363-.015,3.543,0a3.156,3.156,0,0,1,3.4,3.021A3.246,3.246,0,0,1-349,517.839c-2.611.144-5.238.129-7.851.013A3.425,3.425,0,0,1-360.1,514.4a3.367,3.367,0,0,1,3.668-3.3C-355.254,511.089-354.074,511.1-352.893,511.1Z" transform="translate(180.016 63.569)" fill="#003474"/><path d="M-388.053,477.828a4.64,4.64,0,0,1,4.8-4.711,4.817,4.817,0,0,1,4.707,4.726,4.874,4.874,0,0,1-4.79,4.831A4.745,4.745,0,0,1-388.053,477.828Z" transform="translate(148.09 20.19)" fill="#003474"/><path d="M-386.653,477.835a4.585,4.585,0,0,1-4.647,4.839,4.658,4.658,0,0,1-4.679-4.837,4.557,4.557,0,0,1,4.6-4.719A4.54,4.54,0,0,1-386.653,477.835Z" transform="translate(139.038 20.19)" fill="#003474"/><path d="M-367.625,555.38c-1.189-1.748-2.239-3.291-3.284-4.833-2.123-3.136-4.267-6.262-6.356-9.422a1.831,1.831,0,0,0-1.986-.973c-7.384.829-14.777,1.6-22.168,2.378-.765.081-1.536.1-2.3.206-1.731.227-1.748.236-1.315-1.463q5.681-22.259,11.375-44.516c.032-.129.092-.253.223-.6,1.193,5.343,2.339,10.471,3.483,15.6.568,2.543,1.155,5.084,1.686,7.633.167.793.4,1.02,1.3.846,6.024-1.163,12.067-2.232,18.1-3.351.859-.161,1.407-.285,1.4.988-.047,12.273-.028,24.548-.032,36.823A5.663,5.663,0,0,1-367.625,555.38Z" transform="translate(128.427 46.503)" fill="#fdfdfe"/><path d="M-329.362,489.363a12.271,12.271,0,0,1-12.479-12.11A12.279,12.279,0,0,1-329.66,465.13,12.14,12.14,0,0,1-317.5,477.206C-317.447,484.929-321.744,489.333-329.362,489.363Zm-1.572-11.77c0,2.155.03,4.31-.013,6.465-.017.848.163,1.418,1.133,1.4.885-.019,1.043-.557,1.039-1.337-.026-4.359-.019-8.721-.009-13.083,0-.8-.1-1.461-1.125-1.431-1.058.03-1.028.778-1.026,1.523C-330.93,473.283-330.935,475.439-330.935,477.594Z" transform="translate(200.877 11.067)" fill="#fdfdfe"/><path d="M-428.986,493.911a50.48,50.48,0,0,1-3.425,13.408c-.341.844-.857,1.168-1.641.838s-.707-.994-.431-1.688a46.518,46.518,0,0,0,3.252-12.672c.073-.743.428-1.337,1.258-1.21A1.06,1.06,0,0,1-428.986,493.911Z" transform="translate(94.833 42.411)" fill="#060f36"/><path d="M-454.685,486.22c4.46.092,9.3,4.49,9.816,8.858.079.653-.107,1.153-.773,1.29a1.037,1.037,0,0,1-1.363-.673c-.154-.486-.231-1-.418-1.476a8.727,8.727,0,0,0-7.466-5.8c-.806-.107-1.474-.21-1.343-1.217C-456.1,486.252-455.4,486.143-454.685,486.22Z" transform="translate(70.194 35.134)" fill="#060f36"/><path d="M-436.569,491.247a2.059,2.059,0,0,1,2.067,2.309,1.962,1.962,0,0,1-2.181,2.005,2.154,2.154,0,0,1-2.138-2.123A2.19,2.19,0,0,1-436.569,491.247Z" transform="translate(90.1 40.899)" fill="#060f36"/><path d="M-363.053,523.955c.287-2.806.471-5.334.818-7.836.495-3.543.546-3.535-2.727-5l-11.283-5.049,17.914-18.421a21.952,21.952,0,0,1-1.375,4.73c-.641,2.091-1.371,4.16-2.151,6.206-.33.868-.238,1.213.715,1.527,3.1,1.026,6.148,2.187,9.222,3.276.621.221,1.118.3.581,1.2-3.77,6.255-7.487,12.543-11.225,18.82A6.044,6.044,0,0,1-363.053,523.955Z" transform="translate(161.578 36.788)" fill="none" stroke="#003474" stroke-miterlimit="10" stroke-width="1"/><path d="M-336.743,475.208c0-2.155,0-4.31,0-6.465,0-.746-.032-1.493,1.026-1.523,1.026-.03,1.127.632,1.125,1.431-.011,4.362-.017,8.723.009,13.083,0,.78-.154,1.318-1.039,1.337-.97.021-1.15-.548-1.133-1.4C-336.713,479.518-336.743,477.363-336.743,475.208Z" transform="translate(206.684 13.452)" fill="#003474"/></g></svg>