<svg xmlns="http://www.w3.org/2000/svg" xmlns:xlink="http://www.w3.org/1999/xlink" width="688.976" height="571.861" viewBox="0 0 688.976 571.861"><defs><filter id="a" x="0" y="0" width="688.976" height="571.861" filterUnits="userSpaceOnUse"><feOffset dx="5" dy="5" input="SourceAlpha"/><feGaussianBlur stdDeviation="3" result="b"/><feFlood flood-opacity="0.161"/><feComposite operator="in" in2="b"/><feComposite in="SourceGraphic"/></filter></defs><g transform="matrix(1, 0, 0, 1, 0, 0)" filter="url(#a)"><path d="M67.651,192.987C108.819,111.977,208.2,1.6,318.537,4.657c49.213,1.362,53.776,23.994,119.006,28.175C543.2,39.6,588.73-16.089,631.53,4.657c44.547,21.592,53.429,110.137,8.255,162.389-47.652,55.119-133.54,44.51-141.707,83.461-6.2,29.579,36.773,66.956,79.8,80.077,46.952,14.32,74.063-6.317,97.682,7.895C712.248,360.559,709.7,448.2,657.67,499.762,552,604.48,269.279,533.554,145.874,483.972c-31.228-12.547-56.957-25.616-78.223-48.5C-12.017,349.757,55.361,217.172,67.651,192.987Z" transform="translate(-25.35 4)" fill="#3abcda"/></g></svg>